<?xml version="1.0" encoding="UTF-8"?>
<svg xmlns="http://www.w3.org/2000/svg" xmlns:xlink="http://www.w3.org/1999/xlink" version="1.1" viewBox="0 0 466.3 271.8">
  <defs>
    <style>
      .cls-1 {
        fill: none;
      }

      .cls-2 {
        fill: #152227;
      }

      .cls-3 {
        clip-path: url(#clippath-1);
      }

      .cls-4 {
        clip-path: url(#clippath-2);
      }

      .cls-5 {
        clip-path: url(#clippath);
      }
    </style>
    <clipPath id="clippath">
      <rect class="cls-1" width="466.3" height="271.8"/>
    </clipPath>
    <clipPath id="clippath-1">
      <rect class="cls-1" width="466.3" height="271.8"/>
    </clipPath>
    <clipPath id="clippath-2">
      <rect class="cls-1" width="466.3" height="271.8"/>
    </clipPath>
  </defs>
  <!-- Generator: Adobe Illustrator 28.6.0, SVG Export Plug-In . SVG Version: 1.2.0 Build 709)  -->
  <g>
    <g id="Layer_1">
      <g id="logos">
        <g id="Main_Logo">
          <g class="cls-5">
            <g>
              <g class="cls-3">
                <path class="cls-2" d="M194,103.5c-4.7,0-9.5-1.2-14-3.6l-82.3-45.1c-14.1-7.7-19.3-25.5-11.6-39.6,7.7-14.1,25.5-19.3,39.6-11.6l82.3,45.1c14.1,7.7,19.3,25.5,11.6,39.6-5.3,9.7-15.3,15.2-25.6,15.2Z"/>
              </g>
              <g class="cls-4">
                <path class="cls-2" d="M111.5,271.8c-16.1,0-29.2-13.1-29.2-29.2V78.5l-39.1,21.4c-14.1,7.7-31.9,2.6-39.6-11.6-7.7-14.1-2.6-31.9,11.6-39.6L97.5,3.6c9-5,20-4.8,28.9.5,8.9,5.3,14.3,14.8,14.3,25.1v213.4c0,16.1-13.1,29.2-29.2,29.2Z"/>
              </g>
              <path class="cls-2" d="M213.5,144.9v88h-20.3v-62.9l-9.1,6.3-9.8-15.4,23-16.1h16.2ZM229.6,209.8c0,7.7,2,13.6,6,17.7s9.7,6.1,17,6.1,4.7-.2,6.6-.7c.9-.2,1.8-.4,2.5-.7v-16.8c-.5.2-.9.3-1.4.4s-1,.2-1.5.2-1.2.1-2,.1c-2.4,0-4.4-.8-6-2.4s-2.4-3.8-2.4-6.6v-21h13.3v-17.5h-13.3v-15.4h-16.1v9.1c0,5.1-2.6,7.7-7.7,7.7h-4.9v16.1h9.8v23.7h.1ZM268.1,223.1c0-2.8,1-5.2,3.1-7.3,2.1-2.1,4.5-3.1,7.3-3.1s5.2,1,7.3,3.1,3.1,4.5,3.1,7.3-1,5.2-3.1,7.3c-2.1,2.1-4.5,3.1-7.3,3.1s-5.2-1-7.3-3.1c-2-2-3.1-4.5-3.1-7.3M292.7,214c1.7,4.1,4.1,7.6,7.1,10.6s6.4,5.4,10.4,7.1,8.2,2.6,12.8,2.6,8.8-.9,12.8-2.6,7.4-4.1,10.4-7.1,5.3-6.6,7.1-10.6c1.7-4.1,2.6-8.5,2.6-13.2s-.9-9.1-2.6-13.2c-1.7-4.1-4.1-7.6-7.1-10.6s-6.4-5.4-10.4-7.1c-4-1.7-8.2-2.6-12.8-2.6s-8.8.9-12.8,2.6c-4,1.7-7.4,4.1-10.4,7.1s-5.3,6.6-7.1,10.6c-1.7,4.1-2.6,8.5-2.6,13.2s.8,9.1,2.6,13.2M332.8,212.5c-2.7,2.9-6,4.3-9.9,4.3s-7.2-1.4-9.9-4.3c-2.7-2.9-4.1-6.8-4.1-11.7s1.4-8.8,4.1-11.7c2.7-2.9,6-4.3,9.9-4.3s7.2,1.4,9.9,4.3c2.7,2.9,4.1,6.8,4.1,11.7s-1.4,8.8-4.1,11.7M393.3,167.9c.8,0,1.6,0,2.3.1.7.1,1.3.2,1.7.3.6.1,1.1.2,1.5.3v19.6c-.6-.2-1.2-.4-2-.7-.7-.2-1.4-.3-2.2-.5-.8-.1-1.8-.2-2.8-.2-3.5,0-6.4,1.2-8.6,3.5-2.2,2.3-3.3,5.6-3.3,9.8v32.8h-18.9v-64.3h14l2.8,7c1.1-1.4,2.5-2.7,4.1-3.8,1.3-1,2.9-1.9,4.8-2.7,2-.8,4.1-1.2,6.6-1.2M420,170.3c-3.6,1.6-6.7,3.8-9.4,6.5-2.7,2.7-4.8,6-6.3,9.7s-2.3,7.8-2.3,12.2.8,8.4,2.3,12.2c1.5,3.7,3.6,7,6.3,9.7,2.7,2.7,5.8,4.9,9.4,6.5s7.4,2.4,11.4,2.4,5.2-.3,7.2-.8c2-.6,3.7-1.2,5-2,1.6-.8,2.9-1.8,3.9-2.8v3.5c0,3.5-1.2,6.5-3.7,8.9s-5.7,3.6-9.6,3.6-3.9-.3-5.4-1c-1.4-.7-2.6-1.4-3.4-2.1-1-.9-1.8-2-2.4-3.2l-18.9,1.4c1.4,4.1,3.4,7.7,6.1,10.9,2.2,2.7,5.3,5.2,9.1,7.4,3.9,2.2,8.8,3.4,14.7,3.4s9.2-.7,13.2-2.2c4-1.5,7.3-3.5,10.1-6.1s5-5.7,6.5-9.3c1.5-3.6,2.3-7.5,2.3-11.7v-58.7h-14l-2.8,6.3c-1.5-1.3-3.1-2.5-4.9-3.5-1.6-.8-3.5-1.6-5.7-2.4-2.2-.7-4.7-1.1-7.5-1.1-3.8,0-7.6.7-11.2,2.3M424.6,189.1c2.5-2.5,5.7-3.7,9.6-3.7s7.1,1.2,9.6,3.7c2.5,2.5,3.7,5.7,3.7,9.6s-1.2,7.1-3.7,9.6-5.7,3.7-9.6,3.7-7.1-1.2-9.6-3.7-3.7-5.7-3.7-9.6,1.2-7.1,3.7-9.6"/>
            </g>
          </g>
        </g>
      </g>
    </g>
  </g>
</svg>