<?xml version="1.0" encoding="UTF-8"?>
<svg id="Logo" xmlns="http://www.w3.org/2000/svg" viewBox="0 0 883.16 184.56">
  <defs>
    <style>
      .cls-1 {
        fill: #152227;
        stroke-width: 0px;
      }
    </style>
  </defs>
  <path class="cls-1" d="m97.73,161.71c-6.31,0-11.42,5.12-11.42,11.42s5.11,11.43,11.42,11.43,11.42-5.12,11.42-11.43-5.11-11.42-11.42-11.42m22.83-39.53c-6.31,0-11.42,5.11-11.42,11.42s5.11,11.42,11.42,11.42,11.42-5.11,11.42-11.42-5.11-11.42-11.42-11.42m-45.65-3.57c-8.28,0-15,6.71-15,14.99s6.72,15,15,15,15-6.71,15-15-6.71-14.99-15-14.99m45.65-52.79c6.31,0,11.42-5.11,11.42-11.42s-5.11-11.42-11.42-11.42-11.42,5.11-11.42,11.42,5.11,11.42,11.42,11.42m45.65-26.42c-8.28,0-15,6.71-15,15s6.71,15,15,15,15-6.72,15-15-6.72-15-15-15M189.03,0c-8.28,0-15,6.71-15,15s6.72,15,15,15,15-6.72,15-15-6.71-15-15-15M6.42,8.57c-3.55,0-6.42,2.88-6.42,6.43s2.88,6.43,6.42,6.43,6.43-2.88,6.43-6.43-2.88-6.43-6.43-6.43m45.65,12.85c3.55,0,6.42-2.88,6.42-6.43s-2.88-6.43-6.42-6.43-6.43,2.88-6.43,6.43,2.88,6.43,6.43,6.43m22.82,44.53c6.31,0,11.42-5.11,11.42-11.42s-5.11-11.43-11.42-11.43-11.42,5.12-11.42,11.43,5.11,11.42,11.42,11.42m68.47-39.53c6.31,0,11.43-5.12,11.43-11.42s-5.11-11.43-11.43-11.43-11.42,5.12-11.42,11.43,5.11,11.42,11.42,11.42m0,52.65c-8.28,0-14.99,6.71-14.99,14.99s6.71,15,14.99,15,15-6.72,15-15-6.71-14.99-15-14.99m-79.88,14.99c0-6.31-5.11-11.42-11.42-11.42s-11.43,5.11-11.43,11.42,5.11,11.42,11.43,11.42,11.42-5.11,11.42-11.42m34.23,15c8.28,0,15-6.72,15-15s-6.71-14.99-15-14.99-14.99,6.71-14.99,14.99,6.71,15,14.99,15M29.25,45.96c-4.73,0-8.57,3.83-8.57,8.57s3.84,8.57,8.57,8.57,8.57-3.83,8.57-8.57-3.83-8.57-8.57-8.57"/>
  <g>
    <path class="cls-1" d="m346.71,67.24l-25.07,63.33c-.7,1.77-3.2,1.78-3.91.01l-25.65-63.36c-.32-.79-1.1-1.32-1.95-1.32h-17.29c-1.5,0-2.52,1.52-1.95,2.91l37.7,91.52c.32.79,1.1,1.3,1.95,1.3h16.45c.85,0,1.62-.51,1.95-1.3l37.69-91.52c.57-1.39-.45-2.91-1.95-2.91h-16.01c-.86,0-1.64.53-1.96,1.33"/>
    <path class="cls-1" d="m535.23,161.64h16.53c1.16,0,2.11-.94,2.11-2.11v-91.52c0-1.16-.94-2.11-2.11-2.11h-16.53c-1.16,0-2.11.94-2.11,2.11v91.52c0,1.16.94,2.11,2.11,2.11"/>
    <path class="cls-1" d="m411.44,79.87c15.68,0,22.8,11.13,24.51,22.79.19,1.28-.8,2.43-2.09,2.43h-46.74c-1.38,0-2.4-1.3-2.05-2.64,2.89-11.24,11.06-22.59,26.37-22.59m27.57,51.94c-.82,0-1.55.5-1.9,1.24-4.5,9.54-12.6,14.2-24.6,14.2-14.52,0-25.88-10.32-28.28-25.07-.21-1.29.77-2.48,2.09-2.48h69.09c1.16,0,2.11-.94,2.11-2.11v-6.46c0-29.01-18.08-47.76-46.06-47.76s-48.4,21.78-48.4,51.78,20.25,49.03,49.24,49.03c21.54,0,37.01-10.71,43.25-29.56.46-1.38-.54-2.81-1.99-2.81h-14.53Z"/>
    <path class="cls-1" d="m736.07,79.87c15.68,0,22.8,11.13,24.51,22.79.19,1.28-.8,2.43-2.09,2.43h-46.74c-1.38,0-2.39-1.3-2.05-2.64,2.89-11.24,11.06-22.59,26.36-22.59m27.57,51.94c-.82,0-1.55.5-1.91,1.24-4.5,9.54-12.6,14.2-24.6,14.2-14.52,0-25.87-10.32-28.28-25.07-.21-1.29.77-2.48,2.09-2.48h69.09c1.16,0,2.11-.94,2.11-2.11v-6.46c0-29.01-18.08-47.76-46.07-47.76s-48.4,21.78-48.4,51.78,20.25,49.03,49.24,49.03c21.54,0,37.01-10.71,43.24-29.56.46-1.38-.54-2.81-1.99-2.81h-14.53Z"/>
    <path class="cls-1" d="m837.09,79.87c15.68,0,22.8,11.13,24.51,22.79.19,1.28-.8,2.43-2.09,2.43h-46.74c-1.38,0-2.39-1.3-2.05-2.64,2.89-11.24,11.06-22.59,26.37-22.59m27.57,51.94c-.82,0-1.55.5-1.91,1.24-4.5,9.54-12.6,14.2-24.6,14.2-14.52,0-25.87-10.32-28.28-25.07-.21-1.29.77-2.48,2.08-2.48h69.1c1.16,0,2.11-.94,2.11-2.11v-6.46c0-29.01-18.08-47.76-46.06-47.76s-48.39,21.78-48.39,51.78,20.25,49.03,49.24,49.03c21.54,0,37.01-10.71,43.25-29.56.46-1.38-.54-2.81-1.99-2.81h-14.53Z"/>
    <path class="cls-1" d="m687.7,67.81c0-.74-.37-1.45-1.02-1.82-3.1-1.76-6.83-2.63-11.3-2.63-12.23,0-24.69,12.58-24.69,23.96v-19.31c0-1.16-.94-2.11-2.11-2.11h-16.53c-1.16,0-2.11.94-2.11,2.11v91.52c0,1.16.94,2.11,2.11,2.11h16.53c1.16,0,2.11-.94,2.11-2.11v-48.41c0-16.65,8.93-28.29,21.72-28.29,5.27,0,8.59.88,13.65,3.62l1.64.89v-19.54Z"/>
    <path class="cls-1" d="m525.02,67.81c0-.74-.37-1.45-1.02-1.82-3.1-1.76-6.83-2.63-11.3-2.63-12.23,0-24.69,12.58-24.69,23.96v-19.31c0-1.16-.94-2.11-2.11-2.11h-16.53c-1.16,0-2.11.94-2.11,2.11v91.52c0,1.16.94,2.11,2.11,2.11h16.53c1.16,0,2.11-.94,2.11-2.11v-48.41c0-16.65,8.93-28.29,21.72-28.29,5.27,0,8.59.88,13.65,3.62l1.64.89v-19.54Z"/>
    <path class="cls-1" d="m620.43,146.02c0-1.52-1.56-2.52-2.95-1.92-4.19,1.81-8,2.73-11.37,2.73-7.1,0-9.86-2.94-9.86-10.49v-52.45c0-1.16.94-2.11,2.11-2.11h21.84c1.16,0,2.11-.94,2.11-2.11v-11.66c0-1.16-.94-2.11-2.11-2.11h-21.84c-1.16,0-2.11-.95-2.11-2.11v-23.52h0s-10.27,0-10.27,0h0s-8.16,0-8.16,0c-1.16,0-2.11.94-2.11,2.11v21.42c0,1.16-.94,2.11-2.11,2.11h-9.77c-1.16,0-2.11.94-2.11,2.11v13.76h0s11.87,0,11.87,0c1.16,0,2.11.94,2.11,2.11v54.56c0,17.07,8.09,25.73,24.03,25.73,7.64,0,13.67-1.48,19.62-4.87.66-.37,1.06-1.09,1.06-1.84v-11.45Z"/>
    <path class="cls-1" d="m543.49,47.98c6.31,0,11.43-5.12,11.43-11.42s-5.11-11.42-11.43-11.42-11.42,5.12-11.42,11.42,5.11,11.42,11.42,11.42"/>
  </g>
</svg>